<?xml version="1.0" encoding="utf-8"?>
<!-- Generator: Adobe Illustrator 24.1.3, SVG Export Plug-In . SVG Version: 6.00 Build 0)  -->
<svg version="1.1" id="Calque_1" xmlns="http://www.w3.org/2000/svg" xmlns:xlink="http://www.w3.org/1999/xlink" x="0px" y="0px"
	 viewBox="0 0 36.64 48.98" style="enable-background:new 0 0 36.64 48.98;" xml:space="preserve">
<style type="text/css">
	.st0{fill:#FFFFFF;}
</style>
<g>
	<g>
		<g>
			<path class="st0" d="M4.91,41.03v1c0,1.34-1.09,2.43-2.41,2.43H1.42v4.18c0,0.17-0.15,0.33-0.33,0.33H0.41
				c-0.17,0-0.33-0.17-0.33-0.33v-4.18v-1.34v-4.16c0-0.19,0.17-0.33,0.33-0.33h2.09C3.82,38.62,4.91,39.71,4.91,41.03z M3.57,41.03
				c0-0.59-0.48-1.07-1.07-1.07H1.42v3.16h1.09c0.59,0,1.07-0.48,1.07-1.09V41.03z"/>
			<path class="st0" d="M11.04,41.03v5.52c0,1.34-1.09,2.43-2.41,2.43c-1.34,0-2.43-1.09-2.43-2.43v-5.52
				c0-1.32,1.09-2.41,2.43-2.41C9.95,38.62,11.04,39.71,11.04,41.03z M9.7,41.03c0-0.59-0.48-1.07-1.07-1.07
				c-0.61,0-1.09,0.48-1.09,1.07v5.52c0,0.61,0.48,1.09,1.09,1.09c0.59,0,1.07-0.48,1.07-1.09V41.03z"/>
			<path class="st0" d="M17.17,42.03c0,0.69-0.27,1.32-0.73,1.76c0.46,0.44,0.73,1.05,0.73,1.74v3.12c0,0.17-0.15,0.33-0.33,0.33
				h-0.67c-0.19,0-0.33-0.17-0.33-0.33v-3.12c0-0.59-0.48-1.07-1.07-1.07H13.7v4.18c0,0.17-0.17,0.33-0.33,0.33H12.7
				c-0.19,0-0.33-0.17-0.33-0.33v-9.35c0-0.38,0.29-0.67,0.67-0.67h1.74c1.34,0,2.41,1.09,2.41,2.41V42.03z M15.83,41.03
				c0-0.59-0.48-1.07-1.07-1.07H13.7v3.16h1.07c0.59,0,1.07-0.48,1.07-1.09V41.03z"/>
			<path class="st0" d="M21.96,38.96v0.67c0,0.19-0.15,0.33-0.33,0.33h-0.94v8.68c0,0.17-0.15,0.33-0.33,0.33h-0.67
				c-0.19,0-0.33-0.17-0.33-0.33v-8.68h-0.94c-0.19,0-0.33-0.15-0.33-0.33v-0.67c0-0.19,0.15-0.33,0.33-0.33h3.22
				C21.82,38.62,21.96,38.77,21.96,38.96z"/>
			<path class="st0" d="M24.83,39.96v3.16h1.82c0.19,0,0.33,0.15,0.33,0.33v0.67c0,0.19-0.15,0.33-0.33,0.33h-1.82v3.18h1.82
				c0.19,0,0.33,0.15,0.33,0.33v0.67c0,0.19-0.15,0.33-0.33,0.33h-2.49c-0.38,0-0.67-0.31-0.67-0.67v-9.02
				c0-0.38,0.29-0.67,0.67-0.67h2.49c0.19,0,0.33,0.15,0.33,0.33v0.67c0,0.19-0.15,0.33-0.33,0.33H24.83z"/>
			<path class="st0" d="M36.51,38.95v1.02c0,0.03,0,0.06-0.01,0.09l-2.32,8.65c-0.04,0.16-0.18,0.26-0.34,0.26c0,0-0.43,0-0.9,0
				c-0.31,0-0.41-0.17-0.34-0.46s2.26-8.44,2.26-8.44h-2.89c-0.2,0-0.36-0.16-0.36-0.36v-0.77c0-0.2,0.16-0.36,0.36-0.36h4.18
				C36.35,38.6,36.51,38.76,36.51,38.95z"/>
		</g>
	</g>
	<path class="st0" d="M36.54,0v36.47H1.78l25.39-25.39c0.35-0.35,0.46-0.88,0.27-1.34c-0.2-0.47-0.65-0.77-1.15-0.77H10.55
		c-0.68,0-1.23,0.56-1.23,1.24s0.55,1.23,1.23,1.23h12.76L0.08,34.67V0H36.54z"/>
</g>
</svg>
